# xmcd
#
# Track frame offsets:
#	150
#	21214
#	48025
#	61128
#	82275
#	105672
#	125366
#	145447
#	173432
#	196017
#	219975
#	244351
#	274016
#
# Disc length: 3998 seconds
#
# Revision: 1
# Processed by: cddbd v1.4PL0 Copyright (c) Steve Scherf et al.
# Submitted via: EasyCDDAExtractor 5.0.6
#
DISCID=b10f9c0d
DTITLE=Various Artist - Freedom [MR]
DYEAR=2002
DGENRE=Gospel
TTITLE0=다윗의 장막5 [1CD 01-MR] - 거룩 거룩 거룩 Holy Holy Holy
TTITLE1=다윗의 장막5 [1CD 02-MR] - 찬양해 Praise the LORD
TTITLE2=다윗의 장막5 [1CD 03-MR] - 주 예수의 이름 높이세 We Want To See Jesus 
TTITLE2=Lifted 
TTITLE3=다윗의 장막5 [1CD 04-MR] - 자유 Freedom
TTITLE4=다윗의 장막5 [1CD 05-MR] - 여호수아의 군대 Joshua's Army
TTITLE5=다윗의 장막5 [1CD 06-MR] - 주는 거룩 You are Holy
TTITLE6=다윗의 장막5 [1CD 07-MR] - 주의 아름다운 처소 Dwelling Places
TTITLE7=다윗의 장막5 [1CD 08-MR] - 겸손의 왕 Humble King
TTITLE8=다윗의 장막5 [1CD 09-MR] - 내 마음을 취하소서 Capture My Heart (Englis
TTITLE8=h)
TTITLE9=다윗의 장막5 [2CD 01-MR] - 주 내 소망은 주 더 알기 원합니다 Changed by
TTITLE9=Your Love
TTITLE10=다윗의 장막5 [2CD 05-MR] - Jesus My Joy
TTITLE11=다윗의 장막5 [2CD 06-MR] - 주 당신이 나의 전부입니다 Watching Over Me
TTITLE12=다윗의 장막5 [2CD 10-MR] - Revival Generation (Theme song for The Cal
TTITLE12=l Korea)
EXTD=
EXTT0=
EXTT1=
EXTT2=
EXTT3=
EXTT4=
EXTT5=
EXTT6=
EXTT7=
EXTT8=
EXTT9=
EXTT10=
EXTT11=
EXTT12=
PLAYORDER=
